<svg xmlns="http://www.w3.org/2000/svg" xmlns:xlink="http://www.w3.org/1999/xlink" viewBox="0 0 40 40"><defs><path id="a" d="M20 40c11.046 0 20-8.954 20-20S31.046 0 20 0 0 8.954 0 20s8.954 20 20 20z"/><mask id="b" width="40" height="40" x="0" y="0" fill="#fff"><use xlink:href="#a"/></mask></defs><g fill="none" fill-rule="evenodd"><use stroke="#666" stroke-width="4" mask="url(#b)" xlink:href="#a"/><path stroke="#666" stroke-width="2" d="M12.79 28.126c-1.515.68-2.169.016-1.462-1.484l3.905-8.284c.47-.999 1.665-2.198 2.66-2.675l8.484-4.064c1.497-.717 2.153-.08 1.46 1.435l-3.953 8.64c-.46 1.006-1.647 2.186-2.655 2.64l-8.44 3.792z"/><path fill="#666" d="M15.693 24.636c-.692.276-1.02-.06-.747-.746l2.21-4.946c.225-.505.721-.602 1.122-.202l2.563 2.563c.394.394.31.893-.203 1.122l-4.945 2.209z"/></g></svg>