<svg xmlns="http://www.w3.org/2000/svg" viewBox="0 0 40 40"><g fill="none" fill-rule="evenodd" stroke="#666" stroke-width="2"><path d="M31.426 23.095l2.678 5.742 2.943-1.372a3.173 3.173 0 0 0 1.537-4.212l-1.339-2.871-5.819 2.713z"/><path d="M29.074 31.161c-1.224-.49-2.404-.32-3.49.185-6.383 2.977-13.938.286-16.875-6.01-2.936-6.297-.14-13.815 6.243-16.792 5.211-2.43 11.203-1.083 14.825 2.919l-12.263 5.718c-1.596.745-2.295 2.624-1.561 4.198.734 1.574 2.625 2.246 4.22 1.503l8.422-3.928 9.953-4.641a18.78 18.78 0 0 0-.941-2.453C33.202 2.416 21.869-1.62 12.294 2.844 2.718 7.309-1.474 18.586 2.93 28.03c4.404 9.445 15.737 13.482 25.313 9.017 1.069-.499 2.067-.879 3.438-1.744 0 0-1.382-3.651-2.607-4.142z"/></g></svg>