<svg xmlns="http://www.w3.org/2000/svg" xmlns:xlink="http://www.w3.org/1999/xlink" viewBox="0 0 40 40"><defs><linearGradient id="c" x1="50%" x2="50%" y1="100%" y2="0%"><stop offset="0%" stop-color="#2BAEFF"/><stop offset="100%" stop-color="#0095FF"/></linearGradient><linearGradient id="d" x1="50%" x2="50%" y1="100%" y2="0%"><stop offset="0%" stop-color="#29ADFF"/><stop offset="100%" stop-color="#0095FF"/></linearGradient><path id="a" d="M30.426 22.095l2.678 5.742 2.943-1.372a3.173 3.173 0 0 0 1.537-4.212l-1.339-2.871-5.819 2.713z"/><mask id="e" width="9.455" height="10.456" x="-1" y="-1"><path fill="#fff" d="M29.426 18.382h9.455v10.456h-9.455z"/><use xlink:href="#a"/></mask><path id="b" d="M28.074 30.161c-1.224-.49-2.404-.32-3.49.185-6.383 2.977-13.938.286-16.875-6.01-2.936-6.297-.14-13.815 6.243-16.792 5.211-2.43 11.203-1.083 14.825 2.919l-12.263 5.718c-1.596.745-2.295 2.624-1.561 4.198.734 1.574 2.625 2.246 4.22 1.503l8.422-3.928 9.953-4.641a18.78 18.78 0 0 0-.941-2.453C32.202 1.416 20.869-2.62 11.294 1.844 1.718 6.309-2.474 17.586 1.93 27.03c4.404 9.445 15.737 13.482 25.313 9.017 1.069-.499 2.067-.879 3.438-1.744 0 0-1.382-3.651-2.607-4.142z"/><mask id="f" width="38.769" height="39.241" x="-.7" y="-.7"><path fill="#fff" d="M-.521-.675h38.769v39.241H-.521z"/><use xlink:href="#b"/></mask></defs><g fill="none" fill-rule="evenodd"><g transform="translate(1 1)"><use fill="url(#c)" xlink:href="#a"/><use stroke="url(#d)" stroke-width="2" mask="url(#e)" xlink:href="#a"/></g><g transform="translate(1 1)"><use fill="url(#c)" xlink:href="#b"/><use stroke="url(#d)" stroke-width="1.4" mask="url(#f)" xlink:href="#b"/></g></g></svg>