<svg xmlns="http://www.w3.org/2000/svg" xmlns:xlink="http://www.w3.org/1999/xlink" viewBox="0 0 38 38"><defs><path id="a" d="M10 11.833V8.999A8.999 8.999 0 0 1 19 0c4.97 0 9 4.04 9 8.999v2.834l-.013.191C27.657 16.981 23.367 21 19 21c-4.616 0-8.64-4.02-8.987-8.976L10 11.833z"/><mask id="c" width="18" height="21" x="0" y="0" fill="#fff"><use xlink:href="#a"/></mask><path id="b" d="M0 32.675C0 26.763 10.139 22 19.027 22 27.916 22 38 26.763 38 32.757v3.312C38 37.136 37.098 38 35.997 38H2.003C.897 38 0 37.137 0 36.037v-3.362z"/><mask id="d" width="38" height="16" x="0" y="0" fill="#fff"><use xlink:href="#b"/></mask></defs><g fill="none" fill-rule="evenodd" stroke="#666" stroke-width="4"><use mask="url(#c)" xlink:href="#a"/><use mask="url(#d)" xlink:href="#b"/></g></svg>
